<?xml version="1.0" encoding="UTF-8" standalone="no"?><!-- Generator: Gravit.io --><svg xmlns="http://www.w3.org/2000/svg" xmlns:xlink="http://www.w3.org/1999/xlink" style="isolation:isolate" viewBox="0 0 512 512" width="512pt" height="512pt"><defs><clipPath id="_clipPath_aJTOC6UvZnWIbV9ReXSLUzenMtQgbSEh"><rect width="512" height="512"/></clipPath></defs><g clip-path="url(#_clipPath_aJTOC6UvZnWIbV9ReXSLUzenMtQgbSEh)"><g><g><path d=" M 256 0 C 114.842 0 0 114.842 0 256 C 0 397.148 114.842 512 256 512 C 397.148 512 512 397.148 512 256 C 512 114.842 397.168 0 256 0 Z  M 319.665 265.012 L 278.016 265.012 C 278.016 331.554 278.016 413.461 278.016 413.461 L 216.3 413.461 C 216.3 413.461 216.3 332.348 216.3 265.012 L 186.963 265.012 L 186.963 212.546 L 216.3 212.546 L 216.3 178.61 C 216.3 154.305 227.849 116.327 278.583 116.327 L 324.315 116.502 L 324.315 167.432 C 324.315 167.432 296.525 167.432 291.122 167.432 C 285.719 167.432 278.036 170.134 278.036 181.724 L 278.036 212.557 L 325.058 212.557 L 319.665 265.012 Z " fill="#939393"/></g></g></g></svg>