<?xml version="1.0" encoding="UTF-8" standalone="no"?><!-- Generator: Gravit.io --><svg xmlns="http://www.w3.org/2000/svg" xmlns:xlink="http://www.w3.org/1999/xlink" style="isolation:isolate" viewBox="0 0 512 512" width="512pt" height="512pt"><defs><clipPath id="_clipPath_H7LXDXZkcKe1k7GLriDaJctvy1WvfcnY"><rect width="512" height="512"/></clipPath></defs><g clip-path="url(#_clipPath_H7LXDXZkcKe1k7GLriDaJctvy1WvfcnY)"><g><path d=" M 256 0 C 114.62 0 0 114.615 0 256 C 0 397.385 114.62 512 256 512 C 397.38 512 512 397.385 512 256 C 512 114.615 397.38 0 256 0 Z  M 385.857 283.687 C 397.789 295.342 410.412 306.31 421.123 319.168 C 425.869 324.857 430.342 330.739 433.746 337.354 C 438.607 346.788 434.218 357.132 425.774 357.693 L 373.328 357.682 C 359.783 358.803 349.003 353.34 339.916 344.08 C 332.661 336.7 325.931 328.817 318.943 321.185 C 316.089 318.053 313.082 315.104 309.499 312.784 C 302.35 308.132 296.138 309.557 292.042 317.026 C 287.867 324.626 286.914 333.049 286.516 341.508 C 285.945 353.874 282.215 357.106 269.807 357.688 C 243.293 358.929 218.136 354.906 194.754 341.539 C 174.127 329.749 158.162 313.108 144.25 294.268 C 117.16 257.54 96.413 217.229 77.772 175.761 C 73.576 166.422 76.645 161.425 86.948 161.232 C 104.066 160.902 121.183 160.943 138.3 161.216 C 145.267 161.326 149.876 165.312 152.552 171.885 C 161.802 194.644 173.142 216.297 187.353 236.379 C 191.14 241.727 195.005 247.059 200.51 250.835 C 206.586 255.005 211.216 253.627 214.081 246.844 C 215.915 242.533 216.706 237.924 217.104 233.304 C 218.466 217.481 218.628 201.663 216.271 185.902 C 214.804 176.039 209.257 169.67 199.426 167.805 C 194.419 166.857 195.152 165.003 197.587 162.143 C 201.814 157.198 205.774 154.139 213.689 154.139 L 272.944 154.129 C 282.284 155.962 284.379 160.153 285.646 169.56 L 285.699 235.41 C 285.589 239.05 287.527 249.84 294.063 252.224 C 299.301 253.952 302.758 249.751 305.891 246.436 C 320.101 231.356 330.226 213.558 339.292 195.136 C 343.294 187.012 346.746 178.606 350.098 170.183 C 352.591 163.955 356.467 160.891 363.496 160.996 L 420.558 161.064 C 422.239 161.064 423.946 161.08 425.612 161.368 C 435.229 163.012 437.863 167.15 434.888 176.531 C 430.206 191.271 421.108 203.548 412.214 215.857 C 402.681 229.036 392.514 241.753 383.076 254.989 C 374.402 267.089 375.088 273.18 385.857 283.687 Z " fill="rgb(147,147,147)"/></g></g></svg>