<svg width="119" height="136" viewBox="0 0 119 136" fill="none" xmlns="http://www.w3.org/2000/svg">
<path d="M8.49992 0H80.72L119 38.1311V127.5C119 132.196 115.192 136 110.5 136H8.49992C3.80779 136 0 132.196 0 127.5V8.49992C0 3.80383 3.80823 0 8.49992 0Z" fill="#F2CC2F"/>
<path d="M118.877 38.2499H89.2504C84.5583 38.2499 80.7505 34.4421 80.7505 29.75V0.0849609L118.877 38.2499Z" fill="#C6A621"/>
<path d="M87.1165 64.4426C88.5404 64.4426 89.2374 63.2016 89.2374 61.9989C89.2374 60.7535 88.5105 59.5508 87.1165 59.5508H79.0075C77.4222 59.5508 76.5383 60.8639 76.5383 62.3133V82.2414C76.5383 84.018 77.5497 85.0039 78.9182 85.0039C80.2784 85.0039 81.2942 84.018 81.2942 82.2414V76.7718H86.1987C87.7202 76.7718 88.481 75.5264 88.481 74.2899C88.481 73.0788 87.7202 71.8756 86.1987 71.8756H81.2942V64.4426H87.1165ZM59.7082 59.5508H53.7751C52.1643 59.5508 51.0209 60.6559 51.0209 62.2961V82.2586C51.0209 84.2942 52.6656 84.9318 53.8428 84.9318H60.0692C67.4385 84.9318 72.3048 80.0827 72.3048 72.5981C72.3009 64.6849 67.7195 59.5508 59.7082 59.5508ZM59.9932 80.0106H56.3762V64.4725H59.6361C64.5705 64.4725 66.7165 67.7833 66.7165 72.3519C66.7165 76.6276 64.6083 80.0106 59.9932 80.0106ZM38.2585 59.5508H32.3808C30.719 59.5508 29.7925 60.6471 29.7925 62.3133V82.2414C29.7925 84.018 30.8549 85.0039 32.2828 85.0039C33.7106 85.0039 34.7731 84.018 34.7731 82.2414V76.4231H38.4577C43.0052 76.4231 46.758 73.2015 46.758 68.0208C46.7585 62.9509 43.1376 59.5508 38.2585 59.5508ZM38.1609 71.7486H34.7735V64.2302H38.1609C40.2519 64.2302 41.5822 65.8621 41.5822 67.9913C41.5778 70.1166 40.2519 71.7486 38.1609 71.7486Z" fill="white"/>
</svg>
