<?xml version="1.0" encoding="UTF-8" standalone="no"?><!-- Generator: Gravit.io --><svg xmlns="http://www.w3.org/2000/svg" xmlns:xlink="http://www.w3.org/1999/xlink" style="isolation:isolate" viewBox="0 0 512 512" width="512pt" height="512pt"><defs><clipPath id="_clipPath_iQaJBwaWASgH0A2HM9ToDUfD8l5KS4wh"><rect width="512" height="512"/></clipPath></defs><g clip-path="url(#_clipPath_iQaJBwaWASgH0A2HM9ToDUfD8l5KS4wh)"><path d=" M 305 256 C 305 283.063 283.063 305 256 305 C 228.938 305 207 283.063 207 256 C 207 228.938 228.938 207 256 207 C 283.063 207 305 228.938 305 256 Z " fill="rgb(147,147,147)"/><path d=" M 370.594 169.305 C 368.238 162.922 364.48 157.145 359.598 152.402 C 354.855 147.52 349.082 143.762 342.695 141.406 C 337.516 139.395 329.734 137 315.402 136.348 C 299.898 135.641 295.25 135.488 256 135.488 C 216.746 135.488 212.098 135.637 196.598 136.344 C 182.266 137 174.48 139.395 169.305 141.406 C 162.918 143.762 157.141 147.52 152.402 152.402 C 147.52 157.145 143.762 162.918 141.402 169.305 C 139.391 174.484 136.996 182.27 136.344 196.602 C 135.637 212.102 135.484 216.75 135.484 256.004 C 135.484 295.254 135.637 299.902 136.344 315.406 C 136.996 329.738 139.391 337.52 141.402 342.699 C 143.762 349.086 147.516 354.859 152.398 359.602 C 157.141 364.484 162.914 368.242 169.301 370.598 C 174.48 372.613 182.266 375.008 196.598 375.66 C 212.098 376.367 216.742 376.516 255.996 376.516 C 295.254 376.516 299.902 376.367 315.398 375.66 C 329.73 375.008 337.516 372.613 342.695 370.598 C 355.516 365.652 365.648 355.52 370.594 342.699 C 372.605 337.52 375 329.738 375.656 315.406 C 376.363 299.902 376.512 295.254 376.512 256.004 C 376.512 216.75 376.363 212.102 375.656 196.602 C 375.004 182.27 372.609 174.484 370.594 169.305 L 370.594 169.305 Z  M 256 331.484 C 214.309 331.484 180.512 297.691 180.512 256 C 180.512 214.309 214.309 180.516 256 180.516 C 297.688 180.516 331.484 214.309 331.484 256 C 331.484 297.691 297.688 331.484 256 331.484 Z  M 334.469 195.172 C 324.727 195.172 316.828 187.273 316.828 177.531 C 316.828 167.789 324.727 159.891 334.469 159.891 C 344.211 159.891 352.109 167.789 352.109 177.531 C 352.105 187.273 344.211 195.172 334.469 195.172 Z " fill="rgb(147,147,147)"/><path d=" M 256 0 C 114.637 0 0 114.637 0 256 C 0 397.363 114.637 512 256 512 C 397.363 512 512 397.363 512 256 C 512 114.637 397.363 0 256 0 Z  M 402.113 316.605 C 401.402 332.254 398.914 342.938 395.281 352.289 C 387.645 372.035 372.035 387.645 352.289 395.281 C 342.941 398.914 332.254 401.398 316.609 402.113 C 300.934 402.828 295.926 403 256.004 403 C 216.078 403 211.074 402.828 195.395 402.113 C 179.75 401.398 169.063 398.914 159.715 395.281 C 149.902 391.59 141.02 385.805 133.676 378.324 C 126.199 370.984 120.414 362.098 116.723 352.289 C 113.09 342.941 110.602 332.254 109.891 316.609 C 109.168 300.93 109 295.922 109 256 C 109 216.078 109.168 211.07 109.887 195.395 C 110.598 179.746 113.082 169.063 116.715 159.711 C 120.406 149.902 126.195 141.016 133.676 133.676 C 141.016 126.195 149.902 120.41 159.711 116.719 C 169.063 113.086 179.746 110.602 195.395 109.887 C 211.07 109.172 216.078 109 256 109 C 295.922 109 300.93 109.172 316.605 109.891 C 332.254 110.602 342.938 113.086 352.289 116.715 C 362.098 120.406 370.984 126.195 378.328 133.676 C 385.805 141.02 391.594 149.902 395.281 159.711 C 398.918 169.063 401.402 179.746 402.117 195.395 C 402.832 211.07 403 216.078 403 256 C 403 295.922 402.832 300.93 402.113 316.605 L 402.113 316.605 Z " fill="rgb(147,147,147)"/></g></svg>