<svg width="120" height="136" viewBox="0 0 120 136" fill="none" xmlns="http://www.w3.org/2000/svg">
<path d="M8.49992 0H80.72L119 38.1311V127.5C119 132.196 115.192 136 110.5 136H8.49992C3.80779 136 0 132.196 0 127.5V8.49992C0 3.80383 3.80823 0 8.49992 0Z" fill="#F2CC2F"/>
<path d="M119.127 38.165L89.4999 38.165C84.8078 38.165 81 34.3572 81 29.6651V0L119.127 38.165Z" fill="#C6A621"/>
<path d="M65.0756 72.1947C64.0076 71.1267 62.2708 71.1267 61.2028 72.1947C57.9988 75.3987 52.7774 75.3987 49.5734 72.1947L39.8859 62.5072C38.3325 60.9537 37.4802 58.8932 37.4802 56.6925C37.4802 54.4918 38.3325 52.4313 39.8859 50.8778C43.0899 47.6738 48.3005 47.6738 51.5153 50.8778L57.4702 56.8328C58.5382 57.9008 60.275 57.9008 61.343 56.8328C62.411 55.7648 62.411 54.0279 61.343 52.9599L55.3881 47.005C50.0481 41.665 41.3531 41.665 36.0131 47.005C33.424 49.5941 32 53.0246 32 56.6925C32 60.3496 33.424 63.7909 36.0131 66.38L45.7006 76.0675C48.376 78.7321 51.8821 80.0698 55.3881 80.0698C58.8942 80.0698 62.4002 78.7321 65.0756 76.0675C66.1436 74.9995 66.1436 73.2627 65.0756 72.1947Z" fill="white"/>
<path d="M82.7893 74.4059L73.1018 64.7184C67.7618 59.3784 59.0668 59.3784 53.7268 64.7184C52.6588 65.7864 52.6588 67.5232 53.7268 68.5912C54.7948 69.6592 56.5316 69.6592 57.5996 68.5912C60.8036 65.3872 66.0142 65.3872 69.229 68.5912L78.9165 78.2787C80.4699 79.8322 81.3222 81.8927 81.3222 84.0934C81.3222 86.2941 80.4699 88.3546 78.9165 89.9081C75.8096 93.015 70.3941 93.015 67.2871 89.9081L61.343 83.9532C60.275 82.8852 58.5382 82.8852 57.4702 83.9532C56.4022 85.0212 56.4022 86.758 57.4702 87.826L63.4251 93.7701C66.0142 96.3592 69.4555 97.7832 73.1126 97.7832C76.7697 97.7832 80.211 96.3592 82.8001 93.7701C85.3892 91.181 86.8132 87.7397 86.8132 84.0826C86.8024 80.4255 85.3784 76.995 82.7893 74.4059Z" fill="white"/>
</svg>
