<?xml version="1.0" encoding="UTF-8" standalone="no"?><!-- Generator: Gravit.io --><svg xmlns="http://www.w3.org/2000/svg" xmlns:xlink="http://www.w3.org/1999/xlink" style="isolation:isolate" viewBox="0 0 512 512" width="512pt" height="512pt"><defs><clipPath id="_clipPath_qHidhOAMZph5bpmQrzDrnbY4PTs6SEyq"><rect width="512" height="512"/></clipPath></defs><g clip-path="url(#_clipPath_qHidhOAMZph5bpmQrzDrnbY4PTs6SEyq)"><path d=" M 256 0 C 114.637 0 0 114.637 0 256 C 0 397.363 114.637 512 256 512 C 397.363 512 512 397.363 512 256 C 512 114.637 397.363 0 256 0 Z  M 261.426 405.051 C 261.422 405.051 261.43 405.051 261.426 405.051 L 261.363 405.051 C 235.719 405.039 210.52 398.609 188.141 386.406 L 106.918 407.707 L 128.656 328.332 C 115.246 305.105 108.191 278.754 108.203 251.758 C 108.238 167.305 176.973 98.598 261.426 98.598 C 302.41 98.613 340.883 114.566 369.809 143.516 C 398.738 172.469 414.66 210.953 414.645 251.879 C 414.609 336.336 345.867 405.051 261.426 405.051 L 261.426 405.051 Z " fill="rgb(147,147,147)"/><path d=" M 261.477 124.469 C 191.23 124.469 134.102 181.574 134.07 251.77 C 134.063 275.824 140.797 299.25 153.543 319.52 L 156.57 324.336 L 143.703 371.316 L 191.902 358.676 L 196.555 361.434 C 216.105 373.035 238.52 379.172 261.371 379.18 L 261.422 379.18 C 331.613 379.18 388.742 322.07 388.773 251.871 C 388.785 217.852 375.551 185.867 351.508 161.805 C 327.465 137.742 295.488 124.48 261.477 124.469 L 261.477 124.469 Z  M 336.383 306.504 C 333.191 315.441 317.898 323.602 310.543 324.703 C 303.945 325.688 295.602 326.098 286.43 323.188 C 280.867 321.422 273.738 319.066 264.602 315.125 C 226.199 298.547 201.117 259.891 199.203 257.336 C 197.289 254.781 183.57 236.582 183.57 217.742 C 183.57 198.906 193.461 189.645 196.969 185.816 C 200.48 181.984 204.629 181.027 207.18 181.027 C 209.73 181.027 212.285 181.051 214.516 181.16 C 216.867 181.277 220.023 180.266 223.129 187.73 C 226.32 195.395 233.977 214.23 234.934 216.145 C 235.891 218.063 236.527 220.297 235.254 222.852 C 233.977 225.406 229.734 230.918 225.684 235.941 C 223.984 238.047 221.77 239.922 224.004 243.754 C 226.234 247.582 233.922 260.117 245.301 270.266 C 259.926 283.305 272.262 287.344 276.09 289.262 C 279.914 291.176 282.148 290.855 284.383 288.305 C 286.613 285.75 293.953 277.129 296.504 273.297 C 299.055 269.465 301.609 270.105 305.117 271.383 C 308.629 272.656 327.449 281.918 331.277 283.832 C 335.105 285.75 337.656 286.707 338.613 288.305 C 339.574 289.902 339.574 297.563 336.383 306.504 L 336.383 306.504 Z " fill="rgb(147,147,147)"/></g></svg>