<svg width="19" height="20" viewBox="0 0 19 20" fill="none" xmlns="http://www.w3.org/2000/svg">
<path d="M9.58302 0C12.3372 0 14.6416 2.23462 14.6416 5.02789C14.6416 7.7653 12.3372 9.99992 9.58302 9.99992C6.77269 9.99992 4.52441 7.7653 4.52441 5.02789C4.52441 2.23462 6.77269 0 9.58302 0ZM9.58302 1.39664C7.55958 1.39664 5.98579 3.01674 5.98579 5.02789C5.98579 6.98318 7.55958 8.60328 9.58302 8.60328C11.5503 8.60328 13.1803 6.98318 13.1803 5.02789C13.1803 3.01674 11.5503 1.39664 9.58302 1.39664Z" fill="white"/>
<path d="M5.0304 10.3352H14.0797C16.3842 10.3352 18.2952 12.1788 18.2952 14.4693V19.0502C18.2952 19.553 17.8455 19.9999 17.3397 19.9999H1.82661C1.32075 19.9999 0.871094 19.553 0.871094 19.0502V14.4693C0.871094 12.1788 2.72592 10.3352 5.0304 10.3352ZM14.0797 11.7318H5.0304C3.51281 11.7318 2.27626 12.9609 2.27626 14.4693V18.6033H16.8338V14.4693C16.8338 12.9609 15.5973 11.7318 14.0797 11.7318Z" fill="white"/>
</svg>
