<svg width="0" height="0">
  <symbol xmlns="http://www.w3.org/2000/svg" viewBox="0 0 100 44" id="logo" >
    <defs>
      <clipPath id="a">
        <path d="M0 0h100v44H0z"></path>
      </clipPath>
    </defs>
    <g clip-path="url(#a)">
      <path d="M14.032 16.541a28.097 28.097 0 0 1-.099-1.438c-.01-.297 0-.585 0-.833 0-4.502 1.141-7.963 3.421-10.383C19.635 1.468 22.901.258 27.152.258a12.065 12.065 0 0 1 8.568 3.094 10.442 10.442 0 0 1 3.273 8.003c0 1.817-.371 3.616-1.091 5.285a19.245 19.245 0 0 1-3.422 5.197L19.863 38.695h14.498v-7.626h5.187v11.9H13.765v-3.967L30.434 19.05a14.22 14.22 0 0 0 2.371-3.818c.53-1.293.803-2.678.803-4.076a5.771 5.771 0 0 0-1.865-4.541 7.41 7.41 0 0 0-5.126-1.666 6.936 6.936 0 0 0-5.712 2.33c-1.237 1.56-1.858 3.93-1.865 7.11v2.122l-5.008.03zM43.773 4.195V0h9.312v18.921a13.198 13.198 0 0 1 4.354-3.044 13.681 13.681 0 0 1 5.355-.923 13.36 13.36 0 0 1 9.916 4.106 14.165 14.165 0 0 1 3.967 10.234 13.972 13.972 0 0 1-14.3 14.329 12.89 12.89 0 0 1-5.107-.902 12.563 12.563 0 0 1-4.185-2.975v3.292h-9.312v-4.195h4.146V4.195h-4.146zm8.925 25.099a10.196 10.196 0 0 0 2.668 7.209 8.66 8.66 0 0 0 6.624 2.866 8.817 8.817 0 0 0 6.753-2.846 10.152 10.152 0 0 0 2.678-7.229 10.133 10.133 0 0 0-2.678-7.21A8.861 8.861 0 0 0 62 19.278a8.762 8.762 0 0 0-6.654 2.806 10.136 10.136 0 0 0-2.608 7.21h-.04zm37.058-9.381a9.855 9.855 0 0 1 3.679-3.848 10.83 10.83 0 0 1 5.375-1.22H100v4.671h-1.428a9.083 9.083 0 0 0-6.496 2.192 8.078 8.078 0 0 0-2.32 6.138v10.997h4.214v4.116H80.464v-4.116h4.224V19.744h-4.224v-4.105h9.292v4.274zM8.965 4.195V0H0v42.949h8.965v-4.106H4.77V4.195h4.195z"></path>
    </g>
  </symbol>
</svg>